<?xml version="1.0" encoding="UTF-8" standalone="no"?>
<!-- Created with Inkscape (http://www.inkscape.org/) -->

<svg
   xmlns:dc="http://purl.org/dc/elements/1.1/"
   xmlns:cc="http://creativecommons.org/ns#"
   xmlns:rdf="http://www.w3.org/1999/02/22-rdf-syntax-ns#"
   xmlns:svg="http://www.w3.org/2000/svg"
   xmlns="http://www.w3.org/2000/svg"
   xmlns:sodipodi="http://sodipodi.sourceforge.net/DTD/sodipodi-0.dtd"
   xmlns:inkscape="http://www.inkscape.org/namespaces/inkscape"
   width="210mm"
   height="297mm"
   viewBox="0 0 744.09448819 1052.3622047"
   id="svg2"
   version="1.1"
   inkscape:version="0.91 r13725"
   sodipodi:docname="drawing.svg">
  <defs
     id="defs4" />
  <sodipodi:namedview
     id="base"
     pagecolor="#ffffff"
     bordercolor="#666666"
     borderopacity="1.0"
     inkscape:pageopacity="0.0"
     inkscape:pageshadow="2"
     inkscape:zoom="0.35"
     inkscape:cx="-55"
     inkscape:cy="634.28571"
     inkscape:document-units="px"
     inkscape:current-layer="layer1"
     showgrid="false"
     inkscape:window-width="1366"
     inkscape:window-height="703"
     inkscape:window-x="0"
     inkscape:window-y="0"
     inkscape:window-maximized="1" />
  <metadata
     id="metadata7">
    <rdf:RDF>
      <cc:Work
         rdf:about="">
        <dc:format>image/svg+xml</dc:format>
        <dc:type
           rdf:resource="http://purl.org/dc/dcmitype/StillImage" />
        <dc:title></dc:title>
      </cc:Work>
    </rdf:RDF>
  </metadata>
  <g
     inkscape:label="Layer 1"
     inkscape:groupmode="layer"
     id="layer1">
    <path
       sodipodi:type="spiral"
       style="fill:none;fill-rule:evenodd;stroke:#000000;stroke-width:1px;stroke-linecap:butt;stroke-linejoin:miter;stroke-opacity:1"
       id="path3336"
       sodipodi:cx="174.28572"
       sodipodi:cy="438.07648"
       sodipodi:expansion="1"
       sodipodi:revolution="3"
       sodipodi:radius="151.85922"
       sodipodi:argument="-18.130726"
       sodipodi:t0="0"
       d="m 174.28572,438.07648 c 5.7301,5.01384 -3.93153,10.19771 -8.33333,9.52381 -11.92863,-1.82625 -14.82201,-16.7565 -10.71429,-26.19048 7.34775,-16.87518 29.12491,-20.24653 44.04762,-11.90476 21.89968,12.24188 25.81826,41.6562 13.09524,61.90476 -16.95779,26.98815 -54.24467,31.45188 -79.76191,14.28571 -32.11083,-21.60187 -37.117359,-66.86023 -15.47618,-97.61905 26.21036,-37.25304 79.49103,-42.80125 115.47619,-16.66665 42.40726,30.79872 48.49671,92.13131 17.85713,133.33333 -35.3746,47.56936 -104.77793,54.19987 -151.190473,19.04761 C 46.548831,483.84852 39.377282,406.36176 79.047633,354.74314 123.55177,296.83485 209.13094,289.12223 265.95239,333.31458 c 63.08258,49.06189 71.33632,142.74007 22.61904,204.7619"
       transform="matrix(2.3336755,0,0,4.0377567,-119.22239,-1219.7028)" />
  </g>
</svg>
